<svg width="604" height="132" viewBox="0 0 604 132" fill="none" xmlns="http://www.w3.org/2000/svg">
<path d="M0.742188 129L49.125 3.01562H67.0859L118.648 129H99.6562L84.9609 90.8438H32.2812L18.4453 129H0.742188ZM37.0938 77.2656H79.8047L66.6562 42.375C62.6458 31.776 59.6667 23.0677 57.7188 16.25C56.1146 24.3281 53.8516 32.349 50.9297 40.3125L37.0938 77.2656ZM131.281 129V3.01562H178.547C188.172 3.01562 195.878 4.30469 201.664 6.88281C207.508 9.40365 212.062 13.3281 215.328 18.6562C218.651 23.9271 220.312 29.4557 220.312 35.2422C220.312 40.6276 218.852 45.6979 215.93 50.4531C213.008 55.2083 208.596 59.0469 202.695 61.9688C210.315 64.2031 216.159 68.013 220.227 73.3984C224.352 78.7839 226.414 85.1432 226.414 92.4766C226.414 98.3776 225.154 103.878 222.633 108.977C220.169 114.018 217.104 117.914 213.438 120.664C209.771 123.414 205.159 125.505 199.602 126.938C194.102 128.312 187.341 129 179.32 129H131.281ZM147.953 55.9531H175.195C182.586 55.9531 187.885 55.4661 191.094 54.4922C195.333 53.2318 198.513 51.1406 200.633 48.2188C202.81 45.2969 203.898 41.6302 203.898 37.2188C203.898 33.0365 202.896 29.3698 200.891 26.2188C198.885 23.0104 196.021 20.8333 192.297 19.6875C188.573 18.4844 182.185 17.8828 173.133 17.8828H147.953V55.9531ZM147.953 114.133H179.32C184.706 114.133 188.487 113.932 190.664 113.531C194.503 112.844 197.711 111.698 200.289 110.094C202.867 108.49 204.987 106.169 206.648 103.133C208.31 100.039 209.141 96.487 209.141 92.4766C209.141 87.7786 207.938 83.7109 205.531 80.2734C203.125 76.7786 199.773 74.3438 195.477 72.9688C191.237 71.5365 185.107 70.8203 177.086 70.8203H147.953V114.133ZM244.289 67.6406C244.289 46.7292 249.904 30.3724 261.133 18.5703C272.362 6.71094 286.857 0.78125 304.617 0.78125C316.247 0.78125 326.732 3.5599 336.07 9.11719C345.409 14.6745 352.513 22.4375 357.383 32.4062C362.31 42.3177 364.773 53.5755 364.773 66.1797C364.773 78.9557 362.195 90.3854 357.039 100.469C351.883 110.552 344.578 118.201 335.125 123.414C325.672 128.57 315.474 131.148 304.531 131.148C292.672 131.148 282.073 128.284 272.734 122.555C263.396 116.826 256.32 109.005 251.508 99.0938C246.695 89.1823 244.289 78.6979 244.289 67.6406ZM261.477 67.8984C261.477 83.0807 265.544 95.0547 273.68 103.82C281.872 112.529 292.128 116.883 304.445 116.883C316.992 116.883 327.305 112.471 335.383 103.648C343.518 94.8255 347.586 82.3073 347.586 66.0938C347.586 55.8385 345.839 46.901 342.344 39.2812C338.906 31.6042 333.836 25.6745 327.133 21.4922C320.487 17.2526 313.01 15.1328 304.703 15.1328C292.901 15.1328 282.732 19.2005 274.195 27.3359C265.716 35.4141 261.477 48.9349 261.477 67.8984ZM469.016 3.01562H485.688V75.8047C485.688 88.4661 484.255 98.5208 481.391 105.969C478.526 113.417 473.341 119.49 465.836 124.188C458.388 128.828 448.591 131.148 436.445 131.148C424.643 131.148 414.99 129.115 407.484 125.047C399.979 120.979 394.622 115.107 391.414 107.43C388.206 99.6953 386.602 89.1536 386.602 75.8047V3.01562H403.273V75.7188C403.273 86.6615 404.276 94.7396 406.281 99.9531C408.344 105.109 411.839 109.091 416.766 111.898C421.75 114.706 427.823 116.109 434.984 116.109C447.245 116.109 455.982 113.331 461.195 107.773C466.409 102.216 469.016 91.5312 469.016 75.7188V3.01562ZM545.586 129V17.8828H504.078V3.01562H603.938V17.8828H562.258V129H545.586Z" fill="black"/>
</svg>
