<svg width="138" height="31" viewBox="0 0 138 31" fill="none" xmlns="http://www.w3.org/2000/svg">
<path d="M0.441406 30L11.4375 1.36719H15.5195L27.2383 30H22.9219L19.582 21.3281H7.60938L4.46484 30H0.441406ZM8.70312 18.2422H18.4102L15.4219 10.3125C14.5104 7.90365 13.8333 5.92448 13.3906 4.375C13.026 6.21094 12.5117 8.03385 11.8477 9.84375L8.70312 18.2422ZM30.1094 30V1.36719H40.8516C43.0391 1.36719 44.7904 1.66016 46.1055 2.24609C47.4336 2.81901 48.4688 3.71094 49.2109 4.92188C49.9661 6.11979 50.3438 7.3763 50.3438 8.69141C50.3438 9.91536 50.0117 11.0677 49.3477 12.1484C48.6836 13.2292 47.681 14.1016 46.3398 14.7656C48.0716 15.2734 49.3997 16.1393 50.3242 17.3633C51.2617 18.5872 51.7305 20.0326 51.7305 21.6992C51.7305 23.0404 51.444 24.2904 50.8711 25.4492C50.3112 26.5951 49.6146 27.4805 48.7812 28.1055C47.9479 28.7305 46.8997 29.2057 45.6367 29.5312C44.3867 29.8438 42.8503 30 41.0273 30H30.1094ZM33.8984 13.3984H40.0898C41.7695 13.3984 42.974 13.2878 43.7031 13.0664C44.6667 12.7799 45.3893 12.3047 45.8711 11.6406C46.3659 10.9766 46.6133 10.1432 46.6133 9.14062C46.6133 8.1901 46.3854 7.35677 45.9297 6.64062C45.474 5.91146 44.8229 5.41667 43.9766 5.15625C43.1302 4.88281 41.6784 4.74609 39.6211 4.74609H33.8984V13.3984ZM33.8984 26.6211H41.0273C42.2513 26.6211 43.1107 26.5755 43.6055 26.4844C44.4779 26.3281 45.207 26.0677 45.793 25.7031C46.3789 25.3385 46.8607 24.8112 47.2383 24.1211C47.6159 23.418 47.8047 22.6107 47.8047 21.6992C47.8047 20.6315 47.5312 19.707 46.9844 18.9258C46.4375 18.1315 45.6758 17.5781 44.6992 17.2656C43.7357 16.9401 42.3424 16.7773 40.5195 16.7773H33.8984V26.6211ZM55.793 16.0547C55.793 11.3021 57.069 7.58464 59.6211 4.90234C62.1732 2.20703 65.4674 0.859375 69.5039 0.859375C72.1471 0.859375 74.5299 1.49089 76.6523 2.75391C78.7747 4.01693 80.3893 5.78125 81.4961 8.04688C82.6159 10.2995 83.1758 12.8581 83.1758 15.7227C83.1758 18.6263 82.5898 21.224 81.418 23.5156C80.2461 25.8073 78.5859 27.5456 76.4375 28.7305C74.2891 29.9023 71.9714 30.4883 69.4844 30.4883C66.7891 30.4883 64.3802 29.8372 62.2578 28.5352C60.1354 27.2331 58.5273 25.4557 57.4336 23.2031C56.3398 20.9505 55.793 18.5677 55.793 16.0547ZM59.6992 16.1133C59.6992 19.5638 60.6237 22.2852 62.4727 24.2773C64.3346 26.2565 66.6654 27.2461 69.4648 27.2461C72.3164 27.2461 74.6602 26.2435 76.4961 24.2383C78.3451 22.2331 79.2695 19.388 79.2695 15.7031C79.2695 13.3724 78.8724 11.3411 78.0781 9.60938C77.2969 7.86458 76.1445 6.51693 74.6211 5.56641C73.1107 4.60286 71.4115 4.12109 69.5234 4.12109C66.8411 4.12109 64.5299 5.04557 62.5898 6.89453C60.6628 8.73047 59.6992 11.8034 59.6992 16.1133ZM106.867 1.36719H110.656V17.9102C110.656 20.7878 110.331 23.0729 109.68 24.7656C109.029 26.4583 107.85 27.8385 106.145 28.9062C104.452 29.9609 102.225 30.4883 99.4648 30.4883C96.7826 30.4883 94.5885 30.026 92.8828 29.1016C91.1771 28.1771 89.9596 26.8424 89.2305 25.0977C88.5013 23.3398 88.1367 20.944 88.1367 17.9102V1.36719H91.9258V17.8906C91.9258 20.3776 92.1536 22.2135 92.6094 23.3984C93.0781 24.5703 93.8724 25.4753 94.9922 26.1133C96.125 26.7513 97.5052 27.0703 99.1328 27.0703C101.919 27.0703 103.905 26.4388 105.09 25.1758C106.275 23.9128 106.867 21.4844 106.867 17.8906V1.36719ZM124.27 30V4.74609H114.836V1.36719H137.531V4.74609H128.059V30H124.27Z" fill="black"/>
</svg>
