<svg width="107" height="31" viewBox="0 0 107 31" fill="none" xmlns="http://www.w3.org/2000/svg">
<path d="M0.429688 30V1.36719H11.1719C13.3594 1.36719 15.1107 1.66016 16.4258 2.24609C17.7539 2.81901 18.7891 3.71094 19.5312 4.92188C20.2865 6.11979 20.6641 7.3763 20.6641 8.69141C20.6641 9.91536 20.332 11.0677 19.668 12.1484C19.0039 13.2292 18.0013 14.1016 16.6602 14.7656C18.3919 15.2734 19.7201 16.1393 20.6445 17.3633C21.582 18.5872 22.0508 20.0326 22.0508 21.6992C22.0508 23.0404 21.7643 24.2904 21.1914 25.4492C20.6315 26.5951 19.9349 27.4805 19.1016 28.1055C18.2682 28.7305 17.2201 29.2057 15.957 29.5312C14.707 29.8438 13.1706 30 11.3477 30H0.429688ZM4.21875 13.3984H10.4102C12.0898 13.3984 13.2943 13.2878 14.0234 13.0664C14.987 12.7799 15.7096 12.3047 16.1914 11.6406C16.6862 10.9766 16.9336 10.1432 16.9336 9.14062C16.9336 8.1901 16.7057 7.35677 16.25 6.64062C15.7943 5.91146 15.1432 5.41667 14.2969 5.15625C13.4505 4.88281 11.9987 4.74609 9.94141 4.74609H4.21875V13.3984ZM4.21875 26.6211H11.3477C12.5716 26.6211 13.431 26.5755 13.9258 26.4844C14.7982 26.3281 15.5273 26.0677 16.1133 25.7031C16.6992 25.3385 17.181 24.8112 17.5586 24.1211C17.9362 23.418 18.125 22.6107 18.125 21.6992C18.125 20.6315 17.8516 19.707 17.3047 18.9258C16.7578 18.1315 15.9961 17.5781 15.0195 17.2656C14.056 16.9401 12.6628 16.7773 10.8398 16.7773H4.21875V26.6211ZM27.1094 30V1.36719H30.8984V26.6211H45V30H27.1094ZM48.3789 16.0547C48.3789 11.3021 49.6549 7.58464 52.207 4.90234C54.7591 2.20703 58.0534 0.859375 62.0898 0.859375C64.7331 0.859375 67.1159 1.49089 69.2383 2.75391C71.3607 4.01693 72.9753 5.78125 74.082 8.04688C75.2018 10.2995 75.7617 12.8581 75.7617 15.7227C75.7617 18.6263 75.1758 21.224 74.0039 23.5156C72.832 25.8073 71.1719 27.5456 69.0234 28.7305C66.875 29.9023 64.5573 30.4883 62.0703 30.4883C59.375 30.4883 56.9661 29.8372 54.8438 28.5352C52.7214 27.2331 51.1133 25.4557 50.0195 23.2031C48.9258 20.9505 48.3789 18.5677 48.3789 16.0547ZM52.2852 16.1133C52.2852 19.5638 53.2096 22.2852 55.0586 24.2773C56.9206 26.2565 59.2513 27.2461 62.0508 27.2461C64.9023 27.2461 67.2461 26.2435 69.082 24.2383C70.931 22.2331 71.8555 19.388 71.8555 15.7031C71.8555 13.3724 71.4583 11.3411 70.6641 9.60938C69.8828 7.86458 68.7305 6.51693 67.207 5.56641C65.6966 4.60286 63.9974 4.12109 62.1094 4.12109C59.4271 4.12109 57.1159 5.04557 55.1758 6.89453C53.2487 8.73047 52.2852 11.8034 52.2852 16.1133ZM94.0625 18.7695V15.4102L106.191 15.3906V26.0156C104.329 27.5 102.409 28.6198 100.43 29.375C98.4505 30.1172 96.4193 30.4883 94.3359 30.4883C91.5234 30.4883 88.9648 29.8893 86.6602 28.6914C84.3685 27.4805 82.6367 25.7357 81.4648 23.457C80.293 21.1784 79.707 18.6328 79.707 15.8203C79.707 13.0339 80.2865 10.4362 81.4453 8.02734C82.6172 5.60547 84.2969 3.80859 86.4844 2.63672C88.6719 1.46484 91.1914 0.878906 94.043 0.878906C96.1133 0.878906 97.9818 1.21745 99.6484 1.89453C101.328 2.55859 102.643 3.48958 103.594 4.6875C104.544 5.88542 105.267 7.44792 105.762 9.375L102.344 10.3125C101.914 8.85417 101.38 7.70833 100.742 6.875C100.104 6.04167 99.1927 5.3776 98.0078 4.88281C96.8229 4.375 95.5078 4.12109 94.0625 4.12109C92.3307 4.12109 90.8333 4.38802 89.5703 4.92188C88.3073 5.44271 87.2852 6.13281 86.5039 6.99219C85.7357 7.85156 85.1367 8.79557 84.707 9.82422C83.9779 11.5951 83.6133 13.5156 83.6133 15.5859C83.6133 18.138 84.0495 20.2734 84.9219 21.9922C85.8073 23.7109 87.0898 24.987 88.7695 25.8203C90.4492 26.6536 92.2331 27.0703 94.1211 27.0703C95.7617 27.0703 97.3633 26.7578 98.9258 26.1328C100.488 25.4948 101.673 24.8177 102.48 24.1016V18.7695H94.0625Z" fill="black"/>
</svg>
