<svg width="467" height="132" viewBox="0 0 467 132" fill="none" xmlns="http://www.w3.org/2000/svg">
<path d="M0.890625 129V3.01562H48.1562C57.7812 3.01562 65.487 4.30469 71.2734 6.88281C77.1172 9.40365 81.6719 13.3281 84.9375 18.6562C88.2604 23.9271 89.9219 29.4557 89.9219 35.2422C89.9219 40.6276 88.4609 45.6979 85.5391 50.4531C82.6172 55.2083 78.2057 59.0469 72.3047 61.9688C79.9245 64.2031 85.7682 68.013 89.8359 73.3984C93.9609 78.7839 96.0234 85.1432 96.0234 92.4766C96.0234 98.3776 94.763 103.878 92.2422 108.977C89.7786 114.018 86.7135 117.914 83.0469 120.664C79.3802 123.414 74.7682 125.505 69.2109 126.938C63.7109 128.312 56.9505 129 48.9297 129H0.890625ZM17.5625 55.9531H44.8047C52.1953 55.9531 57.4948 55.4661 60.7031 54.4922C64.9427 53.2318 68.1224 51.1406 70.2422 48.2188C72.4193 45.2969 73.5078 41.6302 73.5078 37.2188C73.5078 33.0365 72.5052 29.3698 70.5 26.2188C68.4948 23.0104 65.6302 20.8333 61.9062 19.6875C58.1823 18.4844 51.7943 17.8828 42.7422 17.8828H17.5625V55.9531ZM17.5625 114.133H48.9297C54.3151 114.133 58.0964 113.932 60.2734 113.531C64.112 112.844 67.3203 111.698 69.8984 110.094C72.4766 108.49 74.5964 106.169 76.2578 103.133C77.9193 100.039 78.75 96.487 78.75 92.4766C78.75 87.7786 77.5469 83.7109 75.1406 80.2734C72.7344 76.7786 69.3828 74.3438 65.0859 72.9688C60.8464 71.5365 54.7161 70.8203 46.6953 70.8203H17.5625V114.133ZM118.281 129V3.01562H134.953V114.133H197V129H118.281ZM211.867 67.6406C211.867 46.7292 217.482 30.3724 228.711 18.5703C239.94 6.71094 254.435 0.78125 272.195 0.78125C283.826 0.78125 294.31 3.5599 303.648 9.11719C312.987 14.6745 320.091 22.4375 324.961 32.4062C329.888 42.3177 332.352 53.5755 332.352 66.1797C332.352 78.9557 329.773 90.3854 324.617 100.469C319.461 110.552 312.156 118.201 302.703 123.414C293.25 128.57 283.052 131.148 272.109 131.148C260.25 131.148 249.651 128.284 240.312 122.555C230.974 116.826 223.898 109.005 219.086 99.0938C214.273 89.1823 211.867 78.6979 211.867 67.6406ZM229.055 67.8984C229.055 83.0807 233.122 95.0547 241.258 103.82C249.451 112.529 259.706 116.883 272.023 116.883C284.57 116.883 294.883 112.471 302.961 103.648C311.096 94.8255 315.164 82.3073 315.164 66.0938C315.164 55.8385 313.417 46.901 309.922 39.2812C306.484 31.6042 301.414 25.6745 294.711 21.4922C288.065 17.2526 280.589 15.1328 272.281 15.1328C260.479 15.1328 250.31 19.2005 241.773 27.3359C233.294 35.4141 229.055 48.9349 229.055 67.8984ZM412.875 79.5859V64.8047L466.242 64.7188V111.469C458.049 118 449.599 122.927 440.891 126.25C432.182 129.516 423.245 131.148 414.078 131.148C401.703 131.148 390.445 128.513 380.305 123.242C370.221 117.914 362.602 110.237 357.445 100.211C352.289 90.1849 349.711 78.9844 349.711 66.6094C349.711 54.349 352.26 42.9193 357.359 32.3203C362.516 21.6641 369.906 13.7578 379.531 8.60156C389.156 3.44531 400.242 0.867188 412.789 0.867188C421.898 0.867188 430.12 2.35677 437.453 5.33594C444.844 8.25781 450.63 12.3542 454.812 17.625C458.995 22.8958 462.174 29.7708 464.352 38.25L449.312 42.375C447.422 35.9583 445.073 30.9167 442.266 27.25C439.458 23.5833 435.448 20.6615 430.234 18.4844C425.021 16.25 419.234 15.1328 412.875 15.1328C405.255 15.1328 398.667 16.3073 393.109 18.6562C387.552 20.9479 383.055 23.9844 379.617 27.7656C376.237 31.5469 373.602 35.7005 371.711 40.2266C368.503 48.0182 366.898 56.4688 366.898 65.5781C366.898 76.8073 368.818 86.2031 372.656 93.7656C376.552 101.328 382.195 106.943 389.586 110.609C396.977 114.276 404.826 116.109 413.133 116.109C420.352 116.109 427.398 114.734 434.273 111.984C441.148 109.177 446.362 106.198 449.914 103.047V79.5859H412.875Z" fill="black"/>
</svg>
