<svg width="148" height="31" viewBox="0 0 148 31" fill="none" xmlns="http://www.w3.org/2000/svg">
<path d="M14.9844 18.7695V15.4102L27.1133 15.3906V26.0156C25.2513 27.5 23.3307 28.6198 21.3516 29.375C19.3724 30.1172 17.3411 30.4883 15.2578 30.4883C12.4453 30.4883 9.88672 29.8893 7.58203 28.6914C5.29036 27.4805 3.55859 25.7357 2.38672 23.457C1.21484 21.1784 0.628906 18.6328 0.628906 15.8203C0.628906 13.0339 1.20833 10.4362 2.36719 8.02734C3.53906 5.60547 5.21875 3.80859 7.40625 2.63672C9.59375 1.46484 12.1133 0.878906 14.9648 0.878906C17.0352 0.878906 18.9036 1.21745 20.5703 1.89453C22.25 2.55859 23.5651 3.48958 24.5156 4.6875C25.4661 5.88542 26.1888 7.44792 26.6836 9.375L23.2656 10.3125C22.8359 8.85417 22.3021 7.70833 21.6641 6.875C21.026 6.04167 20.1146 5.3776 18.9297 4.88281C17.7448 4.375 16.4297 4.12109 14.9844 4.12109C13.2526 4.12109 11.7552 4.38802 10.4922 4.92188C9.22917 5.44271 8.20703 6.13281 7.42578 6.99219C6.65755 7.85156 6.05859 8.79557 5.62891 9.82422C4.89974 11.5951 4.53516 13.5156 4.53516 15.5859C4.53516 18.138 4.97135 20.2734 5.84375 21.9922C6.72917 23.7109 8.01172 24.987 9.69141 25.8203C11.3711 26.6536 13.1549 27.0703 15.043 27.0703C16.6836 27.0703 18.2852 26.7578 19.8477 26.1328C21.4102 25.4948 22.5951 24.8177 23.4023 24.1016V18.7695H14.9844ZM33.3633 30V1.36719H37.1523V30H33.3633ZM51.1367 30V4.74609H41.7031V1.36719H64.3984V4.74609H54.9258V30H51.1367ZM68.4219 30V1.36719H72.2109V13.125H87.0938V1.36719H90.8828V30H87.0938V16.5039H72.2109V30H68.4219ZM116 1.36719H119.789V17.9102C119.789 20.7878 119.464 23.0729 118.812 24.7656C118.161 26.4583 116.983 27.8385 115.277 28.9062C113.585 29.9609 111.358 30.4883 108.598 30.4883C105.915 30.4883 103.721 30.026 102.016 29.1016C100.31 28.1771 99.0924 26.8424 98.3633 25.0977C97.6341 23.3398 97.2695 20.944 97.2695 17.9102V1.36719H101.059V17.8906C101.059 20.3776 101.286 22.2135 101.742 23.3984C102.211 24.5703 103.005 25.4753 104.125 26.1133C105.258 26.7513 106.638 27.0703 108.266 27.0703C111.052 27.0703 113.038 26.4388 114.223 25.1758C115.408 23.9128 116 21.4844 116 17.8906V1.36719ZM125.961 30V1.36719H136.703C138.891 1.36719 140.642 1.66016 141.957 2.24609C143.285 2.81901 144.32 3.71094 145.062 4.92188C145.818 6.11979 146.195 7.3763 146.195 8.69141C146.195 9.91536 145.863 11.0677 145.199 12.1484C144.535 13.2292 143.533 14.1016 142.191 14.7656C143.923 15.2734 145.251 16.1393 146.176 17.3633C147.113 18.5872 147.582 20.0326 147.582 21.6992C147.582 23.0404 147.296 24.2904 146.723 25.4492C146.163 26.5951 145.466 27.4805 144.633 28.1055C143.799 28.7305 142.751 29.2057 141.488 29.5312C140.238 29.8438 138.702 30 136.879 30H125.961ZM129.75 13.3984H135.941C137.621 13.3984 138.826 13.2878 139.555 13.0664C140.518 12.7799 141.241 12.3047 141.723 11.6406C142.217 10.9766 142.465 10.1432 142.465 9.14062C142.465 8.1901 142.237 7.35677 141.781 6.64062C141.326 5.91146 140.674 5.41667 139.828 5.15625C138.982 4.88281 137.53 4.74609 135.473 4.74609H129.75V13.3984ZM129.75 26.6211H136.879C138.103 26.6211 138.962 26.5755 139.457 26.4844C140.329 26.3281 141.059 26.0677 141.645 25.7031C142.23 25.3385 142.712 24.8112 143.09 24.1211C143.467 23.418 143.656 22.6107 143.656 21.6992C143.656 20.6315 143.383 19.707 142.836 18.9258C142.289 18.1315 141.527 17.5781 140.551 17.2656C139.587 16.9401 138.194 16.7773 136.371 16.7773H129.75V26.6211Z" fill="black"/>
</svg>
