<svg width="647" height="132" viewBox="0 0 647 132" fill="none" xmlns="http://www.w3.org/2000/svg">
<path d="M63.5312 79.5859V64.8047L116.898 64.7188V111.469C108.706 118 100.255 122.927 91.5469 126.25C82.8385 129.516 73.901 131.148 64.7344 131.148C52.3594 131.148 41.1016 128.513 30.9609 123.242C20.8776 117.914 13.2578 110.237 8.10156 100.211C2.94531 90.1849 0.367188 78.9844 0.367188 66.6094C0.367188 54.349 2.91667 42.9193 8.01562 32.3203C13.1719 21.6641 20.5625 13.7578 30.1875 8.60156C39.8125 3.44531 50.8984 0.867188 63.4453 0.867188C72.5547 0.867188 80.776 2.35677 88.1094 5.33594C95.5 8.25781 101.286 12.3542 105.469 17.625C109.651 22.8958 112.831 29.7708 115.008 38.25L99.9688 42.375C98.0781 35.9583 95.7292 30.9167 92.9219 27.25C90.1146 23.5833 86.1042 20.6615 80.8906 18.4844C75.6771 16.25 69.8906 15.1328 63.5312 15.1328C55.9115 15.1328 49.3229 16.3073 43.7656 18.6562C38.2083 20.9479 33.7109 23.9844 30.2734 27.7656C26.8932 31.5469 24.2578 35.7005 22.3672 40.2266C19.1589 48.0182 17.5547 56.4688 17.5547 65.5781C17.5547 76.8073 19.474 86.2031 23.3125 93.7656C27.2083 101.328 32.8516 106.943 40.2422 110.609C47.6328 114.276 55.4818 116.109 63.7891 116.109C71.0078 116.109 78.0547 114.734 84.9297 111.984C91.8047 109.177 97.0182 106.198 100.57 103.047V79.5859H63.5312ZM144.398 129V3.01562H161.07V129H144.398ZM222.602 129V17.8828H181.094V3.01562H280.953V17.8828H239.273V129H222.602ZM298.656 129V3.01562H315.328V54.75H380.812V3.01562H397.484V129H380.812V69.6172H315.328V129H298.656ZM508 3.01562H524.672V75.8047C524.672 88.4661 523.24 98.5208 520.375 105.969C517.51 113.417 512.326 119.49 504.82 124.188C497.372 128.828 487.576 131.148 475.43 131.148C463.628 131.148 453.974 129.115 446.469 125.047C438.964 120.979 433.607 115.107 430.398 107.43C427.19 99.6953 425.586 89.1536 425.586 75.8047V3.01562H442.258V75.7188C442.258 86.6615 443.26 94.7396 445.266 99.9531C447.328 105.109 450.823 109.091 455.75 111.898C460.734 114.706 466.807 116.109 473.969 116.109C486.229 116.109 494.966 113.331 500.18 107.773C505.393 102.216 508 91.5312 508 75.7188V3.01562ZM551.828 129V3.01562H599.094C608.719 3.01562 616.424 4.30469 622.211 6.88281C628.055 9.40365 632.609 13.3281 635.875 18.6562C639.198 23.9271 640.859 29.4557 640.859 35.2422C640.859 40.6276 639.398 45.6979 636.477 50.4531C633.555 55.2083 629.143 59.0469 623.242 61.9688C630.862 64.2031 636.706 68.013 640.773 73.3984C644.898 78.7839 646.961 85.1432 646.961 92.4766C646.961 98.3776 645.701 103.878 643.18 108.977C640.716 114.018 637.651 117.914 633.984 120.664C630.318 123.414 625.706 125.505 620.148 126.938C614.648 128.312 607.888 129 599.867 129H551.828ZM568.5 55.9531H595.742C603.133 55.9531 608.432 55.4661 611.641 54.4922C615.88 53.2318 619.06 51.1406 621.18 48.2188C623.357 45.2969 624.445 41.6302 624.445 37.2188C624.445 33.0365 623.443 29.3698 621.438 26.2188C619.432 23.0104 616.568 20.8333 612.844 19.6875C609.12 18.4844 602.732 17.8828 593.68 17.8828H568.5V55.9531ZM568.5 114.133H599.867C605.253 114.133 609.034 113.932 611.211 113.531C615.049 112.844 618.258 111.698 620.836 110.094C623.414 108.49 625.534 106.169 627.195 103.133C628.857 100.039 629.688 96.487 629.688 92.4766C629.688 87.7786 628.484 83.7109 626.078 80.2734C623.672 76.7786 620.32 74.3438 616.023 72.9688C611.784 71.5365 605.654 70.8203 597.633 70.8203H568.5V114.133Z" fill="black"/>
</svg>
