<svg width="636" height="132" viewBox="0 0 636 132" fill="none" xmlns="http://www.w3.org/2000/svg">
<path d="M0.890625 129V3.01562H26.3281V52.6016H76.1719V3.01562H101.609V129H76.1719V73.9141H26.3281V129H0.890625ZM127.219 129V3.01562H152.656V129H127.219ZM176.203 129V3.01562H201.641V129H176.203ZM220.805 66.7812C220.805 53.9479 222.724 43.1771 226.562 34.4688C229.427 28.0521 233.323 22.2943 238.25 17.1953C243.234 12.0964 248.677 8.3151 254.578 5.85156C262.427 2.52865 271.479 0.867188 281.734 0.867188C300.297 0.867188 315.135 6.625 326.25 18.1406C337.422 29.6562 343.008 45.6693 343.008 66.1797C343.008 86.5182 337.479 102.445 326.422 113.961C315.365 125.419 300.583 131.148 282.078 131.148C263.344 131.148 248.448 125.448 237.391 114.047C226.333 102.589 220.805 86.8333 220.805 66.7812ZM247.016 65.9219C247.016 80.1875 250.31 91.0156 256.898 98.4062C263.487 105.74 271.852 109.406 281.992 109.406C292.133 109.406 300.44 105.768 306.914 98.4922C313.445 91.1589 316.711 80.1875 316.711 65.5781C316.711 51.1406 313.531 40.3698 307.172 33.2656C300.87 26.1615 292.477 22.6094 281.992 22.6094C271.508 22.6094 263.057 26.2188 256.641 33.4375C250.224 40.599 247.016 51.4271 247.016 65.9219ZM404.969 129V103.648H353.406V82.5078L408.062 2.5H428.344V82.4219H443.984V103.648H428.344V129H404.969ZM404.969 82.4219V39.3672L376.008 82.4219H404.969ZM537.141 106.57V129H452.492C453.409 120.521 456.159 112.5 460.742 104.938C465.326 97.3177 474.378 87.2344 487.898 74.6875C498.784 64.5469 505.458 57.6719 507.922 54.0625C511.245 49.0781 512.906 44.151 512.906 39.2812C512.906 33.8958 511.445 29.7708 508.523 26.9062C505.659 23.9844 501.677 22.5234 496.578 22.5234C491.536 22.5234 487.526 24.0417 484.547 27.0781C481.568 30.1146 479.849 35.1562 479.391 42.2031L455.328 39.7969C456.76 26.5052 461.258 16.9661 468.82 11.1797C476.383 5.39323 485.836 2.5 497.18 2.5C509.612 2.5 519.38 5.85156 526.484 12.5547C533.589 19.2578 537.141 27.5938 537.141 37.5625C537.141 43.2344 536.109 48.6484 534.047 53.8047C532.042 58.9036 528.833 64.2604 524.422 69.875C521.5 73.599 516.229 78.9557 508.609 85.9453C500.99 92.9349 496.148 97.5755 494.086 99.8672C492.081 102.159 490.448 104.393 489.188 106.57H537.141ZM594.375 2.5C606.578 2.5 616.117 6.85417 622.992 15.5625C631.185 25.875 635.281 42.9766 635.281 66.8672C635.281 90.7005 631.156 107.831 622.906 118.258C616.089 126.852 606.578 131.148 594.375 131.148C582.115 131.148 572.232 126.451 564.727 117.055C557.221 107.602 553.469 90.7865 553.469 66.6094C553.469 42.8906 557.594 25.8177 565.844 15.3906C572.661 6.79688 582.172 2.5 594.375 2.5ZM594.375 22.5234C591.453 22.5234 588.846 23.4688 586.555 25.3594C584.263 27.1927 582.487 30.5156 581.227 35.3281C579.565 41.5729 578.734 52.0859 578.734 66.8672C578.734 81.6484 579.479 91.8177 580.969 97.375C582.458 102.875 584.32 106.542 586.555 108.375C588.846 110.208 591.453 111.125 594.375 111.125C597.297 111.125 599.904 110.208 602.195 108.375C604.487 106.484 606.263 103.133 607.523 98.3203C609.185 92.1328 610.016 81.6484 610.016 66.8672C610.016 52.0859 609.271 41.9453 607.781 36.4453C606.292 30.888 604.401 27.1927 602.109 25.3594C599.875 23.4688 597.297 22.5234 594.375 22.5234Z" fill="black"/>
</svg>
