<svg width="634" height="132" viewBox="0 0 634 132" fill="none" xmlns="http://www.w3.org/2000/svg">
<path d="M0.09375 129V3.01562H16.7656V54.75H82.25V3.01562H98.9219V129H82.25V69.6172H16.7656V129H0.09375ZM129.602 129V3.01562H146.273V129H129.602ZM178.586 129V3.01562H195.258V129H178.586ZM219.664 67.6406C219.664 46.7292 225.279 30.3724 236.508 18.5703C247.737 6.71094 262.232 0.78125 279.992 0.78125C291.622 0.78125 302.107 3.5599 311.445 9.11719C320.784 14.6745 327.888 22.4375 332.758 32.4062C337.685 42.3177 340.148 53.5755 340.148 66.1797C340.148 78.9557 337.57 90.3854 332.414 100.469C327.258 110.552 319.953 118.201 310.5 123.414C301.047 128.57 290.849 131.148 279.906 131.148C268.047 131.148 257.448 128.284 248.109 122.555C238.771 116.826 231.695 109.005 226.883 99.0938C222.07 89.1823 219.664 78.6979 219.664 67.6406ZM236.852 67.8984C236.852 83.0807 240.919 95.0547 249.055 103.82C257.247 112.529 267.503 116.883 279.82 116.883C292.367 116.883 302.68 112.471 310.758 103.648C318.893 94.8255 322.961 82.3073 322.961 66.0938C322.961 55.8385 321.214 46.901 317.719 39.2812C314.281 31.6042 309.211 25.6745 302.508 21.4922C295.862 17.2526 288.385 15.1328 280.078 15.1328C268.276 15.1328 258.107 19.2005 249.57 27.3359C241.091 35.4141 236.852 48.9349 236.852 67.8984ZM405.031 129V98.8359H350.375V84.6562L407.867 3.01562H420.5V84.6562H437.516V98.8359H420.5V129H405.031ZM405.031 84.6562V27.8516L365.586 84.6562H405.031ZM534.711 114.133V129H451.438C451.323 125.276 451.924 121.695 453.242 118.258C455.362 112.586 458.742 107 463.383 101.5C468.081 96 474.841 89.6406 483.664 82.4219C497.357 71.1927 506.609 62.3125 511.422 55.7812C516.234 49.1927 518.641 42.9766 518.641 37.1328C518.641 31.0026 516.435 25.8464 512.023 21.6641C507.669 17.4245 501.969 15.3047 494.922 15.3047C487.474 15.3047 481.516 17.5391 477.047 22.0078C472.578 26.4766 470.315 32.6641 470.258 40.5703L454.359 38.9375C455.448 27.0781 459.544 18.0547 466.648 11.8672C473.753 5.6224 483.292 2.5 495.266 2.5C507.354 2.5 516.922 5.85156 523.969 12.5547C531.016 19.2578 534.539 27.5651 534.539 37.4766C534.539 42.5182 533.508 47.474 531.445 52.3438C529.383 57.2135 525.945 62.3411 521.133 67.7266C516.378 73.112 508.443 80.5026 497.328 89.8984C488.047 97.6901 482.089 102.99 479.453 105.797C476.818 108.547 474.641 111.326 472.922 114.133H534.711ZM551.383 66.8672C551.383 51.9714 552.901 39.9974 555.938 30.9453C559.031 21.8359 563.586 14.8177 569.602 9.89062C575.674 4.96354 583.294 2.5 592.461 2.5C599.221 2.5 605.151 3.875 610.25 6.625C615.349 9.31771 619.56 13.2422 622.883 18.3984C626.206 23.4974 628.812 29.7422 630.703 37.1328C632.594 44.4661 633.539 54.3776 633.539 66.8672C633.539 81.6484 632.021 93.5938 628.984 102.703C625.948 111.755 621.393 118.773 615.32 123.758C609.305 128.685 601.685 131.148 592.461 131.148C580.315 131.148 570.776 126.794 563.844 118.086C555.536 107.602 551.383 90.5286 551.383 66.8672ZM567.281 66.8672C567.281 87.5495 569.688 101.328 574.5 108.203C579.37 115.021 585.357 118.43 592.461 118.43C599.565 118.43 605.523 114.992 610.336 108.117C615.206 101.242 617.641 87.4922 617.641 66.8672C617.641 46.1276 615.206 32.349 610.336 25.5312C605.523 18.7135 599.508 15.3047 592.289 15.3047C585.185 15.3047 579.513 18.3125 575.273 24.3281C569.945 32.0052 567.281 46.1849 567.281 66.8672Z" fill="black"/>
</svg>
