<svg width="125" height="31" viewBox="0 0 125 31" fill="none" xmlns="http://www.w3.org/2000/svg">
<path d="M8.58594 30L0.988281 1.36719H4.875L9.23047 20.1367C9.69922 22.1029 10.1029 24.056 10.4414 25.9961C11.1706 22.9362 11.6003 21.1719 11.7305 20.7031L17.1797 1.36719H21.75L25.8516 15.8594C26.8802 19.4531 27.6224 22.832 28.0781 25.9961C28.4427 24.1862 28.918 22.1094 29.5039 19.7656L33.9961 1.36719H37.8047L29.9531 30H26.3008L20.2656 8.18359C19.7578 6.36068 19.4583 5.24089 19.3672 4.82422C19.0677 6.13932 18.7878 7.25911 18.5273 8.18359L12.4531 30H8.58594ZM40.207 16.0547C40.207 11.3021 41.4831 7.58464 44.0352 4.90234C46.5872 2.20703 49.8815 0.859375 53.918 0.859375C56.5612 0.859375 58.944 1.49089 61.0664 2.75391C63.1888 4.01693 64.8034 5.78125 65.9102 8.04688C67.0299 10.2995 67.5898 12.8581 67.5898 15.7227C67.5898 18.6263 67.0039 21.224 65.832 23.5156C64.6602 25.8073 63 27.5456 60.8516 28.7305C58.7031 29.9023 56.3854 30.4883 53.8984 30.4883C51.2031 30.4883 48.7943 29.8372 46.6719 28.5352C44.5495 27.2331 42.9414 25.4557 41.8477 23.2031C40.7539 20.9505 40.207 18.5677 40.207 16.0547ZM44.1133 16.1133C44.1133 19.5638 45.0378 22.2852 46.8867 24.2773C48.7487 26.2565 51.0794 27.2461 53.8789 27.2461C56.7305 27.2461 59.0742 26.2435 60.9102 24.2383C62.7591 22.2331 63.6836 19.388 63.6836 15.7031C63.6836 13.3724 63.2865 11.3411 62.4922 9.60938C61.7109 7.86458 60.5586 6.51693 59.0352 5.56641C57.5247 4.60286 55.8255 4.12109 53.9375 4.12109C51.2552 4.12109 48.944 5.04557 47.0039 6.89453C45.0768 8.73047 44.1133 11.8034 44.1133 16.1133ZM72.5508 30V1.36719H85.2461C87.7982 1.36719 89.7383 1.6276 91.0664 2.14844C92.3945 2.65625 93.4557 3.5612 94.25 4.86328C95.0443 6.16536 95.4414 7.60417 95.4414 9.17969C95.4414 11.2109 94.7839 12.9232 93.4688 14.3164C92.1536 15.7096 90.1224 16.5951 87.375 16.9727C88.3776 17.4544 89.1393 17.9297 89.6602 18.3984C90.7669 19.4141 91.8151 20.6836 92.8047 22.207L97.7852 30H93.0195L89.2305 24.043C88.1237 22.3242 87.2122 21.0091 86.4961 20.0977C85.7799 19.1862 85.1354 18.5482 84.5625 18.1836C84.0026 17.819 83.4297 17.5651 82.8438 17.4219C82.4141 17.3307 81.7109 17.2852 80.7344 17.2852H76.3398V30H72.5508ZM76.3398 14.0039H84.4844C86.2161 14.0039 87.5703 13.8281 88.5469 13.4766C89.5234 13.112 90.2656 12.5391 90.7734 11.7578C91.2812 10.9635 91.5352 10.1042 91.5352 9.17969C91.5352 7.82552 91.0404 6.71224 90.0508 5.83984C89.0742 4.96745 87.5247 4.53125 85.4023 4.53125H76.3398V14.0039ZM101.242 30V1.36719H105.031V15.5664L119.25 1.36719H124.387L112.375 12.9688L124.914 30H119.914L109.719 15.5078L105.031 20.0781V30H101.242Z" fill="black"/>
</svg>
