<svg width="546" height="132" viewBox="0 0 546 132" fill="none" xmlns="http://www.w3.org/2000/svg">
<path d="M33.5781 129L0.148438 3.01562H17.25L36.4141 85.6016C38.4766 94.2526 40.2526 102.846 41.7422 111.383C44.9505 97.9193 46.8411 90.1562 47.4141 88.0938L71.3906 3.01562H91.5L109.547 66.7812C114.073 82.5938 117.339 97.4609 119.344 111.383C120.948 103.419 123.039 94.2812 125.617 83.9688L145.383 3.01562H162.141L127.594 129H111.523L84.9688 33.0078C82.7344 24.987 81.4167 20.0599 81.0156 18.2266C79.6979 24.013 78.4661 28.9401 77.3203 33.0078L50.5938 129H33.5781ZM172.711 67.6406C172.711 46.7292 178.326 30.3724 189.555 18.5703C200.784 6.71094 215.279 0.78125 233.039 0.78125C244.669 0.78125 255.154 3.5599 264.492 9.11719C273.831 14.6745 280.935 22.4375 285.805 32.4062C290.732 42.3177 293.195 53.5755 293.195 66.1797C293.195 78.9557 290.617 90.3854 285.461 100.469C280.305 110.552 273 118.201 263.547 123.414C254.094 128.57 243.896 131.148 232.953 131.148C221.094 131.148 210.495 128.284 201.156 122.555C191.818 116.826 184.742 109.005 179.93 99.0938C175.117 89.1823 172.711 78.6979 172.711 67.6406ZM189.898 67.8984C189.898 83.0807 193.966 95.0547 202.102 103.82C210.294 112.529 220.549 116.883 232.867 116.883C245.414 116.883 255.727 112.471 263.805 103.648C271.94 94.8255 276.008 82.3073 276.008 66.0938C276.008 55.8385 274.26 46.901 270.766 39.2812C267.328 31.6042 262.258 25.6745 255.555 21.4922C248.909 17.2526 241.432 15.1328 233.125 15.1328C221.323 15.1328 211.154 19.2005 202.617 27.3359C194.138 35.4141 189.898 48.9349 189.898 67.8984ZM315.023 129V3.01562H370.883C382.112 3.01562 390.648 4.16146 396.492 6.45312C402.336 8.6875 407.005 12.6693 410.5 18.3984C413.995 24.1276 415.742 30.4583 415.742 37.3906C415.742 46.3281 412.849 53.862 407.062 59.9922C401.276 66.1224 392.339 70.0182 380.25 71.6797C384.661 73.7995 388.013 75.8906 390.305 77.9531C395.174 82.4219 399.786 88.0078 404.141 94.7109L426.055 129H405.086L388.414 102.789C383.544 95.2266 379.534 89.4401 376.383 85.4297C373.232 81.4193 370.396 78.612 367.875 77.0078C365.411 75.4036 362.891 74.2865 360.312 73.6562C358.422 73.2552 355.328 73.0547 351.031 73.0547H331.695V129H315.023ZM331.695 58.6172H367.531C375.151 58.6172 381.109 57.8438 385.406 56.2969C389.703 54.6927 392.969 52.1719 395.203 48.7344C397.438 45.2396 398.555 41.4583 398.555 37.3906C398.555 31.4323 396.378 26.5339 392.023 22.6953C387.727 18.8568 380.909 16.9375 371.57 16.9375H331.695V58.6172ZM441.266 129V3.01562H457.938V65.4922L520.5 3.01562H543.102L490.25 54.0625L545.422 129H523.422L478.562 65.2344L457.938 85.3438V129H441.266Z" fill="black"/>
</svg>
